<?xml version="1.0" encoding="UTF-8"?>
<svg id="Layer_1" data-name="Layer 1" xmlns="http://www.w3.org/2000/svg" viewBox="0 0 3817 2147.06">
  <path class="cls-1" d="m1383.24,1282.94c11.03-10.32,21.3-20.7,32.48-29.97,4.08-3.39,10.34-5.93,15.58-5.88,120.52,1.17,241.03,2.78,361.54,4.16,6.21.07,12.75-.19,18.61-1.98,22.38-6.85,45.13-4.04,69.47-2.95-3.35-15.6-6.44-30.28-9.67-44.93-7.26-32.92-14.57-65.82-21.94-98.71-.64-2.88-1.77-5.67-2.92-8.4-25.16-59.68-50.46-119.3-75.39-179.07-2.44-5.86-5.4-7.58-11.56-7.75-138.35-3.79-276.71-7.07-415.01-12.27-39.77-1.5-78.23,6.01-117.22,9.72-74.55,7.1-149.09,12.2-224,8.05-1.61-.09-3.2-.5-4.17-.65-13.09-86,.44-170.6,8.45-256.69,3.25,0,6.4-.12,9.53.02,47.96,2.12,95.91,4.39,143.88,6.3,8.36.33,15.06,2.79,21.35,8.46,11.98,10.81,24.59,20.93,37.42,31.74,10.91-10.14,21.16-19.95,31.76-29.34,2.75-2.43,6.58-5.02,9.99-5.12,53.93-1.65,107.97-5.47,161.8-3.63,76.05,2.6,152.04,8.46,227.9,14.8,69.17,5.78,138.07,5.26,207.17-.34,56.41-4.57,112.93-8.75,169.48-10.35,38.3-1.09,76.73,2.59,115.1,4.14,41.35,1.67,82.71,4.8,124.05,4.53,27.66-.18,55.39-4.37,82.9-8.17,59.13-8.16,118.63-10.66,178.15-13.18,9.26-.39,18.54-1.53,27.77-1.21,21.42.75,43.05.59,64.14,3.77,22.92,3.45,44.85-1.49,67.11-3.59,31.62-2.97,63.14-6.98,94.67-10.81,5.96-.72,9.63.8,12.96,6.08,9.88,15.66,20.66,30.76,30.47,46.46,2.36,3.78,3.74,9.22,3.21,13.6-8.01,65.32-16.42,130.59-24.76,195.87-.37,2.9-1,5.77-1.63,9.4-26.57-1.41-52.62-2.52-78.63-4.24-63.74-4.21-127.46-8.66-191.19-13.11-17.83-1.24-35.65-2.63-53.43-4.41-3.74-.37-7.57-2.26-10.86-4.27-13.51-8.27-26.83-16.86-40.76-25.68-3.65,4.42-7.65,8.1-10.21,12.59-7.19,12.63-17.53,14.91-31.46,13.79-46.52-3.74-93.11-7.14-139.74-8.59-22.34-.7-44.83,3.12-67.23,5.16-56.03,5.12-112.04,10.4-168.05,15.63-1.96.18-3.9.57-6.93,1.03,1.13,3.35,2.09,6.31,3.14,9.25,10.64,29.88,21.1,59.83,32.07,89.58,2.58,7.01,2.5,13.13-.3,19.95-3.87,9.43-11.02,20.14-9.11,28.57,1.76,7.78,13.83,13.06,20.93,19.89,2.97,2.85,5.39,6.61,7.1,10.38,24.16,53.27,48.26,106.56,72.03,160,2.75,6.18,6.35,8.57,12.86,9.95,42.52,8.99,85.4,7.64,128.45,6.32,117.15-3.6,234.35-5.78,351.47-10.09,38.9-1.43,77.62-7.72,116.45-11.46,4.3-.41,9.29.35,13.13,2.25,19.85,9.83,39.54,19.99,58.98,30.6,2.98,1.62,6.28,6.22,6.19,9.35-2.15,74.43-4.74,148.85-7.27,223.27-.02.6-.43,1.18-1.02,2.7-2.19,0-4.74.17-7.26-.02-62.36-4.78-124.71-9.79-187.09-14.34-47.17-3.44-94.36-6.84-141.59-9.07-12.53-.59-23.58-2.12-32.23-11.48-11.74-12.7-24.3-14.41-40.45-7.48-31.15,13.37-63.67,16.34-97.85,13.43-59.67-5.08-119.6-7.48-179.47-9.76-20.73-.79-41.7,1.25-62.41,3.47-115.15,12.34-230.79,9.37-346.26,11.22-167.19,2.68-334.39,4.27-501.57,7.29-17.43.31-34.68,7.45-52.11,10.89-14.19,2.8-28.46,6.1-42.82,6.92-36.35,2.08-72.78,2.9-109.17,4.18-1.59.06-3.19-.27-7.72-.7-1.4-77.98-2.79-155.9-4.19-233.87,29.66-11.02,57.35-23.15,86.18-31.21,13.3-3.72,28.83.3,43.33,1.2,68.72,4.27,137.4,9.37,206.17,12.58,19.47.91,35.56,4.26,46.14,21.8.67,1.11,1.74,1.99,2.69,2.91.45.43,1.07.68,2.42,1.5Z"/>
  <path class="cls-1" d="m2427.76,1222.72h-44.76c1.64-13.31,3.06-24.92,4.79-38.95-.77-7.57-2.75-18.09-2.74-28.61.06-38.65,1.18-77.31,1.1-115.96-.05-25.42-1.46-50.83-2.32-76.24-.4-11.85-.88-23.71-1.44-35.55-.41-8.82,4.89-14.27,13.8-13.3,10.16,1.1,20.26,2.72,31.68,4.29-2.01,44.51-10.68,88.86-1.48,133.25,19.58-1.73,36.98-9.95,53.94-18.93,2.85-1.51,5.14-7,5.07-10.6-.53-28.77-1.14-57.56-2.87-86.28-.88-14.64,2.91-20.36,17.2-19.95,8.92.26,17.83.78,27.99,1.24-1,12.38-1.69,24.2-2.96,35.96-3.82,35.48-3.82,70.98-2.03,106.6,1.23,24.44.19,48.99,1,73.46.87,26.38,2.72,52.73,4.1,79.1.17,3.21.02,6.43.02,10.44h-40.66c-1.11-6.73-3.69-14.32-3.31-21.76.72-13.94,3.74-27.76,4.58-41.71.3-4.95-4.21-10.08-4.38-15.19-.49-14.54.16-29.12.29-43.68.07-8.23.01-16.46.01-25.39-20.71,1.48-37.98,9.51-55.08,17.67-2.06.98-2.91,6.16-2.95,9.42-.47,34.02-3.88,68.08,1.27,102.07.88,5.79.12,11.83.12,18.62Z"/>
  <path class="cls-1" d="m1366.61,1086.03c1.58,45.68,3.17,91.36,4.79,138.11h-44.21c1.58-19.03-3.94-38.3,5.85-56.36.9-1.67,1.73-3.76,1.56-5.56-.85-9.58-3.59-19.26-2.84-28.68,3.8-47.68-1.23-95.06-3.38-142.56-1.09-23.98-1.26-48.01-1.9-74.28,10.6-.27,22.56-1.1,34.47-.68,7.89.28,10.19,5.16,9.83,13.48-1.65,38.65-2.42,77.34-3.5,116.01-.04,1.31,0,2.63,0,6.64,6.42-12.37,12.16-22.35,16.86-32.79,6.37-14.15,11.64-28.79,17.99-42.94,2.63-5.86,6.86-11,10.34-16.49,1.53-2.41,3.63-4.68,4.36-7.33,3.52-12.75,6.66-25.61,10.51-40.68,15.14,7.46,27.57,13.59,40.96,20.19-4.79,8.98-8.44,15.89-12.16,22.77-17.42,32.16-34.76,64.36-52.38,96.41-2.8,5.08-3.3,9.21-.68,14.66,16.73,34.79,33.06,69.78,49.6,104.66,5.98,12.61,12.19,25.1,18.89,38.86-10,5.51-19.16,11.37-29,15.68-6.48,2.84-12.07,1.4-15.38-7-8.7-22.12-20.58-43.2-27.16-65.86-6.23-21.43-18.92-39.27-26.79-59.57-.98-2.54-2.61-4.83-3.94-7.23-.9.18-1.8.36-2.7.55Z"/>
</svg>