<svg width="179" height="58" viewBox="0 0 179 58" fill="none" xmlns="http://www.w3.org/2000/svg">
<path d="M83.5291 1.65043C80.6267 4.71548 77.3169 12.0244 75.0765 20.4651C72.9379 28.3399 73.6508 32.0651 77.2151 32.0651C77.8771 32.0651 78.3862 31.8765 78.3862 31.5936C78.3862 31.3578 78.0807 31.2635 77.6734 31.405C75.9421 32.018 75.4329 28.8586 76.4004 23.8602C76.8587 21.2667 77.3679 20.4651 81.1868 16.0326C87.2971 8.95939 90.4541 3.77239 89.7412 2.02767C89.4357 1.2732 86.9407 2.28882e-05 85.8714 2.28882e-05C85.464 2.28882e-05 84.3947 0.754496 83.5291 1.65043ZM88.5701 2.68783C88.5191 4.57402 84.4456 11.0342 79.5065 16.9757C77.8261 18.9562 77.7752 19.0033 78.0807 17.683C78.6408 15.4667 84.191 5.09272 85.7186 3.39515C87.2462 1.74474 88.5701 1.41466 88.5701 2.68783Z" fill="#59CAFA"/>
<path d="M111.484 5.75261C110.923 6.6014 108.938 10.138 107.054 13.5331L103.693 19.8047H99.4157C96.0551 19.8047 95.1895 19.9461 95.1895 20.512C95.1895 21.5965 96.9207 22.1624 100.027 22.1624C102.318 22.1624 102.878 22.3039 102.675 22.8226C101.402 25.8405 100.18 30.4616 99.9249 33.008C99.6703 35.6486 99.8231 36.2616 100.689 37.2519L101.758 38.4307L101.453 36.4974C101.096 33.9982 101.962 30.3673 103.998 25.699L105.628 21.9266L112.247 21.1722C115.914 20.7478 119.732 20.2291 120.802 20.0404C121.82 19.8518 122.686 19.8047 122.686 19.9461C122.686 20.0404 122.329 21.0778 121.922 22.1624C121.515 23.247 121.158 25.2746 121.158 26.6421C121.158 29.5657 122.278 30.8388 124.57 30.5088L125.996 30.3201L124.621 30.2258C119.987 29.9901 122.482 22.0681 130.425 11.977C132.411 9.38352 134.041 6.97863 134.092 6.6014C134.143 6.22416 133.633 5.84692 133.022 5.75261C132.106 5.61115 131.444 6.22416 129.662 8.81766C128.389 10.5624 126.505 13.5331 125.435 15.4193C123.093 19.3803 123.297 19.3331 113.368 19.3331H106.901L108.174 16.9754C109.345 14.8063 112.604 9.61929 115.15 5.75261L116.168 4.24367H114.335C112.807 4.24367 112.298 4.5266 111.484 5.75261Z" fill="#59CAFA"/>
<path d="M155.274 5.75261C154.714 6.6014 152.728 10.138 150.844 13.5331L147.484 19.8047H143.206C139.846 19.8047 138.98 19.9461 138.98 20.512C138.98 21.5965 140.711 22.1624 143.817 22.1624C146.109 22.1624 146.669 22.3039 146.465 22.8226C145.192 25.8405 143.97 30.4616 143.716 33.008C143.461 35.6486 143.614 36.2616 144.479 37.2519L145.549 38.4307L145.243 36.4974C144.887 33.9982 145.752 30.3673 147.789 25.699L149.419 21.9266L156.038 21.1722C159.704 20.7478 163.523 20.2291 164.592 20.0404C165.611 19.8518 166.476 19.8047 166.476 19.9461C166.476 20.0404 166.12 21.0778 165.713 22.1624C165.305 23.247 164.949 25.2746 164.949 26.6421C164.949 29.5657 166.069 30.8388 168.36 30.5088L169.786 30.3201L168.411 30.2258C163.778 29.9901 166.273 22.0681 174.216 11.977C176.202 9.38352 177.831 6.97863 177.882 6.6014C177.933 6.22416 177.424 5.84692 176.813 5.75261C175.896 5.61115 175.235 6.22416 173.452 8.81766C172.179 10.5624 170.295 13.5331 169.226 15.4193C166.884 19.3803 167.087 19.3331 157.158 19.3331H150.691L151.964 16.9754C153.136 14.8063 156.394 9.61929 158.94 5.75261L159.959 4.24367H158.126C156.598 4.24367 156.089 4.5266 155.274 5.75261Z" fill="#59CAFA"/>
<path d="M27.8744 5.8942C25.1757 6.83729 22.2224 8.77063 17.5378 12.7788C11.8349 17.6357 8.88156 19.8048 8.01593 19.8048C6.43744 19.8048 6.64111 21.2666 8.77972 25.0861C10.2564 27.7739 12.0385 30.0373 14.4827 32.3479C16.4685 34.2341 18.3525 35.8374 18.7599 35.9317C19.2181 36.026 18.1998 37.252 16.0102 39.1382C9.39075 45.0796 5.06262 51.1154 5.06262 54.6049C5.06262 56.6797 6.5902 58 9.03431 58C17.6396 58 34.1374 34.3284 35.4104 20.1349C35.7159 16.8341 35.665 16.5983 34.5448 15.891C32.4571 14.5235 32.1007 14.8536 32.1007 18.0129C32.1007 21.4081 31.5406 24.0959 29.7075 29.5658C28.4854 33.1024 27.5179 34.2341 27.4161 32.1593C27.4161 31.7349 26.6014 30.7447 25.583 29.9902L23.8009 28.5755L24.8192 30.1788L25.8885 31.7349L23.8518 33.1024C22.7825 33.8097 21.6113 34.4227 21.3058 34.4227C20.0838 34.4227 15.1446 30.4617 12.9042 27.6325C10.8674 25.1333 8.62696 21.691 8.62696 21.0308C8.62696 20.7007 18.3525 13.8162 23.1389 10.7511C28.7909 7.12022 30.2676 6.50721 33.2209 6.50721C36.4797 6.55436 35.7668 5.70558 32.2534 5.42265C30.7768 5.28119 28.9946 5.46981 27.8744 5.8942ZM26.7032 33.5268C27.2124 34.9886 25.8885 36.026 24.1064 35.6487L22.7316 35.3187L24.2082 33.904C25.8885 32.2536 26.245 32.2064 26.7032 33.5268ZM26.4486 37.4406C24.361 42.5333 19.5236 49.7479 15.6538 53.5675C9.95086 59.1789 4.50251 58.4715 6.79387 52.4358C7.96501 49.4179 10.3582 46.4471 15.6538 41.4016L20.4911 36.8276L22.6297 37.1105C23.8518 37.252 25.2266 37.1577 25.7358 36.8276C26.2959 36.5918 26.7542 36.3089 26.8051 36.3089C26.856 36.3089 26.7032 36.8276 26.4486 37.4406Z" fill="#59CAFA"/>
<path d="M10.7656 7.16743C10.511 7.49751 8.62697 10.6569 6.69204 14.1463C0.581747 24.9447 -1.45502 32.348 1.04002 34.9415L2.0584 36.0732L1.70197 34.8943C0.530828 30.9805 3.48414 23.6244 11.0711 11.8829C13.3115 8.34629 13.7189 7.35605 13.1588 7.02597C12.1404 6.46011 11.3766 6.50727 10.7656 7.16743Z" fill="#59CAFA"/>
<path d="M72.5306 8.95908L70.0355 11.317H71.614C73.4471 11.317 74.2618 10.5624 74.8219 8.25171C75.0256 7.35572 75.1784 6.6012 75.1274 6.6012C75.0765 6.6012 73.9054 7.63866 72.5306 8.95908Z" fill="#59CAFA"/>
<path d="M58.0187 8.0163C58.0187 8.25208 58.3242 8.44069 58.6806 8.34639C59.5462 8.20492 59.3426 11.1285 58.3242 13.2976C57.5604 14.9009 57.4076 14.9952 55.9819 14.6179C54.1488 14.1464 53.8942 15.0423 55.4727 16.4098L56.542 17.3058L54.7089 21.2667C52.163 26.7838 51.6029 29.4245 52.6212 30.8863C53.4869 32.1123 55.6255 32.4895 56.2874 31.5464C56.4911 31.1692 56.2874 31.122 55.5236 31.3578C53.9451 31.7822 53.6905 30.6505 54.7598 27.7269C56.3383 23.2001 59.6481 16.9757 60.4628 16.9757C62.0413 16.9757 65.0964 15.8911 66.4712 14.8066L67.9479 13.6749L66.5222 14.1464C65.7075 14.3822 64.1799 14.6179 63.0087 14.6179C61.2775 14.6179 61.0229 14.4765 61.2775 13.8163C62.0413 11.9773 62.194 8.95939 61.583 8.25208C60.8701 7.45045 58.0187 7.26183 58.0187 8.0163Z" fill="#59CAFA"/>
<path d="M35.0031 10.4208C32.8136 12.4486 32.6609 12.6372 33.6792 12.873C34.2903 13.0145 35.1559 12.9673 35.6651 12.7315C36.5307 12.2599 37.9055 9.28902 37.5491 8.58166C37.4473 8.39303 36.327 9.24186 35.0031 10.4208Z" fill="#59CAFA"/>
<path d="M46.0016 14.6178C42.7428 15.7966 37.8036 22.7284 37.3454 26.7365C37.0908 28.5755 37.2435 29.2357 38.1091 30.2731C39.3312 31.6406 41.9281 32.3479 43.8121 31.8292C45.3397 31.3576 48.9549 28.1983 51.1954 25.369C53.8432 22.021 52.9775 22.1154 49.8205 25.4633C46.6126 28.8585 43.4047 30.7918 41.368 30.556C37.8036 30.1788 40.2478 23.0113 45.5433 18.0601C48.6494 15.1836 49.8715 14.9007 49.8715 16.9284C49.8715 18.7202 47.8347 20.9365 44.8305 22.3983C43.3538 23.1056 42.8446 23.53 43.4557 23.5771C45.0341 23.5771 48.7003 21.7381 50.1261 20.182C53.2321 16.7869 50.4316 12.9674 46.0016 14.6178Z" fill="#59CAFA"/>
<path d="M67.6932 16.7868C63.9761 24.756 63.1105 31.0747 65.6564 31.8291C66.6748 32.1121 69.3735 31.0747 70.0355 30.1316C70.1882 29.8487 69.7809 29.9901 69.068 30.4145C66.4202 31.9706 65.9619 29.9901 67.7441 24.7088C68.3551 22.9169 69.4754 20.0877 70.2901 18.4372C71.1048 16.7868 71.614 15.2779 71.4612 15.0421C71.3084 14.8063 70.6465 14.6177 69.9336 14.6177C68.9152 14.6177 68.457 15.0421 67.6932 16.7868Z" fill="#59CAFA"/>
<path d="M132.462 29.33C131.597 30.1317 131.698 32.0651 132.564 32.0651C132.971 32.0651 133.786 31.6879 134.448 31.1691C135.466 30.4146 135.517 30.1788 134.957 29.5186C134.143 28.6226 133.277 28.5755 132.462 29.33Z" fill="#59CAFA"/>
<path d="M176.253 29.33C175.387 30.1317 175.489 32.0651 176.355 32.0651C177.628 32.0651 179.308 30.4618 178.952 29.5658C178.544 28.6226 177.119 28.5283 176.253 29.33Z" fill="#59CAFA"/>
</svg>
