<svg width="212" height="215" viewBox="0 0 212 215" fill="none" xmlns="http://www.w3.org/2000/svg">
<path d="M72.2714 182.895L67.2524 192.169L33.9642 155.885L39.9999 144.731L88.5723 152.772L83.5533 162.047L46.423 155.21L46.25 155.53L72.2714 182.895ZM55.8673 174.767L67.7225 152.86L74.4785 156.516L62.6233 178.423L55.8673 174.767Z" fill="#2F2C3F"/>
<path d="M90.7946 153.318L53.7495 125.137L59.6112 117.431L73.5393 128.027L73.7182 127.791C73.2274 126.885 72.8392 125.819 72.5536 124.593C72.2651 123.345 72.2561 122.006 72.5264 120.574C72.7939 119.121 73.5193 117.617 74.7027 116.062C76.2438 114.036 78.1963 112.57 80.5601 111.665C82.9118 110.751 85.5387 110.588 88.4409 111.178C91.3309 111.758 94.3677 113.259 97.5513 115.681C100.65 118.038 102.887 120.529 104.26 123.154C105.63 125.757 106.212 128.333 106.007 130.88C105.799 133.406 104.892 135.724 103.287 137.834C102.149 139.329 100.934 140.414 99.6418 141.087C98.3585 141.748 97.0907 142.125 95.8386 142.22C94.5743 142.305 93.4233 142.229 92.3855 141.992L92.124 142.335L96.5738 145.72L90.7946 153.318ZM82.6406 135.207C84.2927 136.464 85.908 137.331 87.4866 137.808C89.0652 138.286 90.5284 138.352 91.8763 138.006C93.212 137.652 94.3524 136.853 95.2972 135.611C96.2512 134.357 96.7148 133.035 96.6879 131.644C96.649 130.243 96.1842 128.852 95.2936 127.47C94.4001 126.067 93.1454 124.751 91.5295 123.522C89.9257 122.302 88.3451 121.452 86.7877 120.971C85.2303 120.491 83.7777 120.423 82.4299 120.769C81.0821 121.114 79.9265 121.92 78.9633 123.186C78.0093 124.44 77.5337 125.754 77.5364 127.127C77.5484 128.487 77.989 129.86 78.8584 131.245C79.7278 132.629 80.9885 133.95 82.6406 135.207Z" fill="#2F2C3F"/>
<path d="M124.792 116.22C122.262 118.683 119.551 120.275 116.659 120.996C113.768 121.697 110.882 121.567 108.002 120.606C105.111 119.635 102.419 117.868 99.9247 115.306C97.4094 112.722 95.7107 109.978 94.8284 107.073C93.9355 104.157 93.8834 101.269 94.6721 98.4078C95.461 95.5254 97.1203 92.8531 99.65 90.3907C102.18 87.9283 104.891 86.3469 107.782 85.6466C110.674 84.9249 113.566 85.0496 116.456 86.0208C119.336 86.9811 122.034 88.7533 124.549 91.3373C127.043 93.8996 128.737 96.6386 129.629 99.5544C130.512 102.459 130.558 105.353 129.769 108.235C128.981 111.096 127.322 113.758 124.792 116.22ZM119.593 110.814C120.744 109.694 121.388 108.433 121.525 107.031C121.651 105.618 121.355 104.152 120.636 102.631C119.928 101.1 118.866 99.6074 117.45 98.1525C116.033 96.6976 114.57 95.5957 113.058 94.8467C111.558 94.0872 110.1 93.7514 108.684 93.8395C107.269 93.9275 105.986 94.5316 104.835 95.6519C103.673 96.7827 103.018 98.065 102.87 99.4988C102.733 100.922 103.019 102.399 103.726 103.93C104.445 105.451 105.513 106.938 106.929 108.393C108.345 109.848 109.803 110.955 111.304 111.715C112.815 112.464 114.284 112.789 115.711 112.69C117.137 112.57 118.431 111.945 119.593 110.814Z" fill="#2F2C3F"/>
<path d="M149.959 75.6689L138.165 59.4604L145.994 53.7638L166.533 81.9908L159.017 87.4601L155.286 82.3329L154.992 82.5469C155.559 84.6644 155.466 86.7648 154.715 88.8481C153.976 90.9224 152.546 92.7308 150.427 94.273C148.54 95.6459 146.568 96.4251 144.511 96.6105C142.453 96.796 140.445 96.3927 138.487 95.4006C136.54 94.3997 134.759 92.801 133.142 90.6047L120.064 72.6321L127.892 66.9355L139.954 83.5115C141.179 85.1688 142.584 86.1604 144.171 86.4864C145.757 86.8124 147.291 86.436 148.774 85.3573C149.717 84.6709 150.443 83.8146 150.952 82.7885C151.452 81.7502 151.641 80.6195 151.519 79.3964C151.41 78.1643 150.89 76.9219 149.959 75.6689Z" fill="#2F2C3F"/>
<path d="M172.717 38.911L176.225 45.2818L157.81 55.4221L154.302 49.0514L172.717 38.911ZM154.448 39.4229L162.929 34.7528L178.628 63.2619C179.059 64.045 179.515 64.5897 179.995 64.8962C180.467 65.1894 180.964 65.3053 181.483 65.2439C182.016 65.1753 182.568 64.9839 183.139 64.6696C183.537 64.4504 183.917 64.1979 184.279 63.9123C184.633 63.6134 184.905 63.3856 185.096 63.2289L189.905 68.8054C189.553 69.172 189.04 69.6535 188.365 70.2499C187.698 70.8596 186.824 71.4877 185.744 72.1341C183.744 73.3392 181.803 74.0537 179.92 74.2777C178.05 74.4944 176.328 74.1796 174.755 73.3333C173.182 72.4871 171.851 71.0583 170.761 69.0468L154.448 39.4229Z" fill="#2F2C3F"/>
</svg>
