<svg width="274" height="102" viewBox="0 0 274 102" fill="none" xmlns="http://www.w3.org/2000/svg">
<path d="M58.0986 50.2316L48.8558 46.5353C49.1652 45.272 49.2453 44.072 49.0961 42.9353C48.9525 41.7846 48.605 40.7154 48.0534 39.7279C47.5019 38.7404 46.7619 37.857 45.8333 37.0777C44.9189 36.304 43.8426 35.6696 42.6046 35.1745C40.3678 34.28 38.1971 34.0565 36.0926 34.504C33.9937 34.9374 32.0651 36.0264 30.3067 37.7709C28.554 39.5014 27.0785 41.8649 25.8801 44.8614C24.648 47.9424 24.07 50.7138 24.1461 53.1757C24.2363 55.6431 24.8977 57.7434 26.1301 59.4765C27.3626 61.2096 29.0691 62.5121 31.2497 63.3842C32.4736 63.8736 33.6708 64.1648 34.8413 64.2575C36.0258 64.3559 37.1498 64.2588 38.2133 63.9661C39.2825 63.6593 40.2644 63.1627 41.159 62.4761C42.0678 61.7951 42.8583 60.9201 43.5307 59.8509L52.7566 63.5894C51.7242 65.4774 50.3611 67.1516 48.6675 68.6119C46.9935 70.0639 45.0649 71.1936 42.8816 72.0013C40.718 72.8005 38.3631 73.1805 35.8168 73.1413C33.2902 73.0936 30.6412 72.5156 27.8698 71.4073C24.0151 69.8657 20.9172 67.6151 18.5761 64.6554C16.2491 61.7013 14.8674 58.2196 14.431 54.2103C14.0086 50.2067 14.737 45.8554 16.6162 41.1566C18.5009 36.4438 20.9907 32.7888 24.0854 30.1916C27.1801 27.5945 30.5929 26.0384 34.3236 25.5232C38.06 24.994 41.8274 25.4889 45.6258 27.008C48.13 28.0094 50.3106 29.2894 52.1676 30.848C54.0388 32.4122 55.5343 34.2015 56.6543 36.216C57.7798 38.2163 58.4749 40.3954 58.7396 42.7531C59.0183 45.1165 58.8046 47.6093 58.0986 50.2316Z" fill="#2F2C3F"/>
<path d="M67.5871 82.5251C64.1528 81.7076 61.3564 80.271 59.198 78.2153C57.0579 76.1484 55.6221 73.6417 54.8906 70.6952C54.1626 67.734 54.2126 64.5141 55.0407 61.0356C55.8757 57.5275 57.2836 54.6231 59.2642 52.3222C61.2483 50.0066 63.6595 48.4157 66.4979 47.5494C69.3545 46.672 72.5 46.642 75.9343 47.4595C79.3687 48.277 82.1559 49.7193 84.296 51.7862C86.4544 53.8419 87.8976 56.3504 88.6256 59.3115C89.3571 62.258 89.3053 65.4853 88.4702 68.9933C87.6422 72.4719 86.2361 75.3689 84.252 77.6845C82.2714 79.9854 79.8528 81.5746 76.9962 82.452C74.1578 83.3183 71.0215 83.3427 67.5871 82.5251ZM69.3681 75.2395C70.9305 75.6115 72.3403 75.4798 73.5973 74.8445C74.8578 74.1945 75.9376 73.1588 76.8367 71.7375C77.7505 70.3197 78.4424 68.6232 78.9126 66.6481C79.3828 64.673 79.5294 62.8467 79.3524 61.1692C79.1902 59.4952 78.6929 58.0841 77.8604 56.9358C77.0279 55.7876 75.8304 55.0275 74.268 54.6556C72.6909 54.2802 71.2573 54.414 69.9673 55.0569C68.692 55.7034 67.5975 56.7356 66.6837 58.1534C65.7846 59.5748 65.1 61.273 64.6299 63.2481C64.1597 65.2232 64.0057 67.0478 64.1679 68.7218C64.3449 70.3993 64.857 71.8139 65.7042 72.9656C66.5697 74.1061 67.791 74.8641 69.3681 75.2395Z" fill="#2F2C3F"/>
<path d="M107.63 67.8894L105.768 87.9852L96.1271 87.0919L99.3478 52.3317L108.536 53.183L107.967 59.3159L108.375 59.3536C109.332 57.4033 110.77 55.9236 112.689 54.9145C114.61 53.8904 116.86 53.4979 119.44 53.7369C121.854 53.9606 123.91 54.6836 125.607 55.906C127.305 57.1285 128.561 58.7665 129.375 60.82C130.19 62.8585 130.473 65.228 130.222 67.9286L128.172 90.061L118.531 89.1678L120.422 68.7552C120.635 66.6294 120.245 64.9195 119.254 63.6256C118.265 62.3166 116.805 61.5726 114.873 61.3937C113.576 61.2735 112.403 61.4463 111.356 61.9123C110.324 62.3796 109.479 63.123 108.821 64.1425C108.18 65.1483 107.783 66.3972 107.63 67.8894Z" fill="#2F2C3F"/>
<path d="M156.303 53.3451L156.54 60.6139L135.529 61.2993L135.292 54.0305L156.303 53.3451ZM139.789 45.5157L149.466 45.2L150.527 77.7282C150.556 78.6216 150.715 79.3138 151.004 79.8046C151.292 80.2803 151.682 80.6087 152.173 80.7898C152.679 80.9703 153.258 81.05 153.909 81.0288C154.363 81.0139 154.816 80.9613 155.268 80.8707C155.72 80.765 156.066 80.6855 156.306 80.6322L158.063 87.7833C157.584 87.9505 156.908 88.1469 156.036 88.3724C155.165 88.6131 154.101 88.7766 152.846 88.863C150.517 89.03 148.462 88.7862 146.682 88.1318C144.917 87.4768 143.526 86.4156 142.508 84.948C141.49 83.4804 140.951 81.603 140.892 79.3159L139.789 45.5157Z" fill="#2F2C3F"/>
<path d="M183.157 85.8402C180.955 86.1779 178.935 86.0968 177.095 85.5972C175.254 85.0825 173.715 84.1458 172.48 82.7871C171.257 81.4111 170.471 79.5849 170.122 77.3085C169.828 75.3915 169.933 73.7276 170.437 72.3167C170.941 70.9058 171.739 69.7104 172.83 68.7306C173.922 67.7508 175.208 66.9405 176.688 66.2995C178.184 65.6563 179.772 65.1214 181.455 64.6948C183.429 64.1774 185.017 63.7347 186.217 63.3666C187.416 62.9836 188.263 62.5624 188.76 62.103C189.256 61.6436 189.448 61.047 189.336 60.3131L189.315 60.1783C189.097 58.7556 188.479 57.7237 187.461 57.0827C186.458 56.4395 185.14 56.243 183.508 56.4934C181.785 56.7575 180.474 57.3496 179.572 58.2695C178.669 59.1745 178.14 60.2214 177.985 61.4101L169.023 62.0487C169.151 59.8831 169.757 57.9354 170.84 56.2057C171.922 54.461 173.44 53.0172 175.396 51.8742C177.364 50.714 179.726 49.9226 182.481 49.5C184.398 49.206 186.267 49.1493 188.088 49.3298C189.925 49.5081 191.596 49.9645 193.104 50.699C194.626 51.4312 195.898 52.4778 196.919 53.8387C197.938 55.1847 198.605 56.8836 198.92 58.9353L202.489 82.2087L193.413 83.6005L192.679 78.8156L192.41 78.8569C192.021 80.0202 191.425 81.0849 190.623 82.051C189.819 83.0021 188.801 83.8097 187.569 84.4738C186.335 85.1229 184.864 85.5784 183.157 85.8402ZM184.885 78.8153C186.292 78.5994 187.493 78.1317 188.486 77.4122C189.477 76.6778 190.206 75.7842 190.673 74.7315C191.14 73.6789 191.281 72.546 191.095 71.3329L190.533 67.6712C190.264 67.9118 189.879 68.1547 189.38 68.3998C188.894 68.6277 188.339 68.8584 187.716 69.0919C187.091 69.3105 186.464 69.5216 185.836 69.7252C185.206 69.9138 184.634 70.0857 184.122 70.241C183.024 70.578 182.083 70.9905 181.299 71.4786C180.516 71.9666 179.939 72.5533 179.569 73.2385C179.196 73.9088 179.079 74.6932 179.217 75.5918C179.417 76.8947 180.041 77.8183 181.09 78.3625C182.152 78.8895 183.417 79.0404 184.885 78.8153Z" fill="#2F2C3F"/>
<path d="M228.337 74.7194C224.903 75.7165 221.738 75.8467 218.842 75.1099C215.956 74.3544 213.473 72.8666 211.393 70.6466C209.327 68.4223 207.802 65.615 206.817 62.2248C205.82 58.7909 205.608 55.5867 206.18 52.6122C206.762 49.6189 208.071 47.0378 210.108 44.8687C212.14 42.685 214.851 41.101 218.242 40.1165C221.166 39.2672 223.881 39.0547 226.387 39.4789C228.893 39.903 231.064 40.8896 232.903 42.4384C234.741 43.9873 236.101 46.0377 236.984 48.5896L228.21 51.1374C227.477 49.5359 226.432 48.3801 225.074 47.67C223.726 46.9412 222.201 46.8239 220.499 47.3183C219.058 47.7365 217.914 48.4949 217.065 49.5933C216.227 50.6729 215.725 52.0414 215.559 53.6988C215.394 55.3561 215.617 57.2397 216.23 59.3496C216.851 61.4885 217.67 63.2228 218.687 64.5525C219.719 65.878 220.887 66.7772 222.192 67.2503C223.497 67.7233 224.87 67.7507 226.31 67.3324C227.372 67.024 228.262 66.529 228.979 65.8474C229.711 65.1616 230.233 64.3237 230.545 63.3338C230.867 62.3251 230.945 61.2061 230.777 59.9768L239.551 57.429C240.149 60.0322 240.106 62.4903 239.421 64.8034C238.746 67.0978 237.475 69.1075 235.61 70.8325C233.744 72.5576 231.32 73.8532 228.337 74.7194Z" fill="#2F2C3F"/>
<path d="M254.246 26.149L257.093 32.8415L237.747 41.0702L234.901 34.3777L254.246 26.149ZM236.019 24.8133L244.928 21.0236L257.667 50.9724C258.017 51.795 258.415 52.383 258.862 52.7363C259.303 53.0757 259.785 53.2412 260.308 53.2326C260.845 53.2182 261.414 53.0835 262.013 52.8284C262.431 52.6505 262.835 52.4377 263.223 52.1901C263.606 51.9285 263.9 51.7294 264.105 51.5927L268.327 57.6264C267.94 57.9556 267.381 58.3828 266.649 58.908C265.923 59.4472 264.991 59.9838 263.851 60.5179C261.74 61.5148 259.736 62.0296 257.84 62.0623C255.958 62.089 254.277 61.602 252.797 60.6012C251.318 59.6005 250.138 58.0445 249.256 55.9332L236.019 24.8133Z" fill="#2F2C3F"/>
</svg>
