<svg width="286" height="276" viewBox="0 0 286 276" fill="none" xmlns="http://www.w3.org/2000/svg">
<path d="M33.4267 83.8806L48.7369 39.9252L66.0787 45.9656C69.4125 47.1268 72.031 48.7528 73.934 50.8436C75.842 52.9201 77.02 55.2958 77.4681 57.9708C77.9355 60.6365 77.6608 63.4288 76.6441 66.3478C75.6274 69.2667 74.1008 71.6229 72.0642 73.4164C70.0275 75.21 67.5977 76.313 64.7746 76.7255C61.9658 77.1431 58.873 76.7637 55.4963 75.5876L44.443 71.7376L47.0371 64.2901L56.5879 67.6167C58.3765 68.2397 59.9574 68.4454 61.3307 68.2338C62.7233 68.0129 63.8976 67.4513 64.8537 66.5489C65.8291 65.6372 66.5684 64.4587 67.0718 63.0136C67.5801 61.5541 67.7304 60.1785 67.5225 58.8868C67.3339 57.5857 66.7576 56.4303 65.7937 55.4207C64.8347 54.3967 63.4538 53.5708 61.6509 52.9428L55.3838 50.7599L42.72 87.1176L33.4267 83.8806Z" fill="#2F2C3F"/>
<path d="M67.0799 97.3302L82.4998 66.0114L90.9208 70.1575L88.2304 75.622L88.5566 75.7826C90.0846 74.1199 91.7657 73.1236 93.6 72.7939C95.441 72.4506 97.2383 72.7106 98.9918 73.5739C99.4268 73.7881 99.8824 74.0462 100.359 74.3482C100.835 74.6502 101.24 74.9424 101.573 75.225L97.7787 82.9324C97.4312 82.6093 96.9206 82.2228 96.247 81.7729C95.5734 81.323 94.9375 80.9509 94.3394 80.6564C93.0617 80.0273 91.7826 79.7438 90.5023 79.8058C89.2423 79.861 88.0791 80.234 87.0127 80.925C85.9599 81.6226 85.119 82.6103 84.4899 83.888L75.766 101.607L67.0799 97.3302Z" fill="#2F2C3F"/>
<path d="M104.083 119.195C101.13 117.261 98.987 114.96 97.6542 112.294C96.3422 109.624 95.8421 106.779 96.1537 103.759C96.4735 100.726 97.6131 97.7144 99.5722 94.7231C101.548 91.7065 103.858 89.452 106.501 87.9596C109.154 86.4545 111.962 85.7761 114.925 85.9242C117.91 86.068 120.879 87.107 123.833 89.0412C126.786 90.9755 128.918 93.2778 130.23 95.9483C131.563 98.6143 132.07 101.464 131.75 104.496C131.438 107.516 130.295 110.534 128.319 113.551C126.36 116.542 124.054 118.79 121.402 120.295C118.758 121.788 115.944 122.462 112.959 122.318C109.995 122.17 107.037 121.129 104.083 119.195ZM108.231 112.946C109.574 113.826 110.945 114.18 112.343 114.009C113.749 113.825 115.116 113.217 116.444 112.185C117.785 111.162 119.012 109.801 120.124 108.102C121.236 106.404 121.994 104.735 122.397 103.097C122.812 101.468 122.823 99.9715 122.429 98.6089C122.036 97.2464 121.167 96.1251 119.824 95.2451C118.467 94.3569 117.074 93.9963 115.642 94.1635C114.223 94.339 112.843 94.9385 111.502 95.9622C110.175 96.9943 108.954 98.3595 107.842 100.058C106.73 101.756 105.966 103.42 105.55 105.05C105.148 106.688 105.149 108.193 105.556 109.564C105.983 110.93 106.874 112.057 108.231 112.946Z" fill="#2F2C3F"/>
<path d="M142.699 104.331L150.157 110.505L126.792 138.725C125.072 140.802 123.273 142.144 121.393 142.752C119.513 143.359 117.562 143.328 115.541 142.657C113.531 141.996 111.469 140.791 109.357 139.042C109.1 138.83 108.86 138.621 108.636 138.416C108.391 138.213 108.139 137.995 107.881 137.761L112.707 131.931C112.896 132.107 113.066 132.258 113.218 132.384C113.348 132.511 113.495 132.643 113.658 132.778C114.86 133.773 115.913 134.212 116.817 134.095C117.723 133.999 118.596 133.443 119.436 132.428L142.699 104.331ZM149.28 103.937C148.183 103.029 147.542 101.879 147.357 100.487C147.182 99.0826 147.525 97.8613 148.385 96.8226C149.235 95.7956 150.361 95.243 151.764 95.1648C153.176 95.0749 154.43 95.4842 155.527 96.3924C156.648 97.3201 157.289 98.481 157.453 99.8753C157.638 101.268 157.305 102.477 156.455 103.504C155.595 104.543 154.459 105.107 153.047 105.197C151.656 105.285 150.401 104.865 149.28 103.937Z" fill="#2F2C3F"/>
<path d="M146.93 156.919C144.423 154.348 142.786 151.628 142.018 148.757C141.272 145.887 141.372 143.017 142.319 140.147C143.276 137.266 145.073 134.54 147.709 131.969C150.28 129.462 153.023 127.761 155.938 126.865C158.852 125.97 161.736 125.899 164.587 126.652C167.449 127.417 170.075 129.025 172.466 131.476C174.074 133.125 175.305 134.919 176.159 136.858C177.035 138.798 177.465 140.812 177.45 142.901C177.445 145.001 176.936 147.127 175.923 149.279C174.921 151.42 173.357 153.527 171.231 155.601L169.328 157.457L148.747 136.354L153.042 132.165L167.26 146.743C168.258 145.77 168.93 144.691 169.277 143.506C169.625 142.321 169.639 141.132 169.322 139.939C169.026 138.746 168.387 137.645 167.403 136.636C166.377 135.584 165.223 134.889 163.941 134.552C162.681 134.214 161.422 134.215 160.165 134.552C158.918 134.88 157.795 135.519 156.798 136.471L152.714 140.454C151.477 141.66 150.631 142.93 150.175 144.263C149.729 145.608 149.675 146.941 150.012 148.263C150.349 149.585 151.083 150.826 152.215 151.987C152.966 152.757 153.762 153.357 154.604 153.785C155.445 154.213 156.304 154.444 157.182 154.476C158.061 154.509 158.931 154.337 159.793 153.963L165.621 160.786C163.764 161.963 161.768 162.607 159.635 162.72C157.522 162.833 155.374 162.409 153.19 161.45C151.027 160.49 148.94 158.98 146.93 156.919Z" fill="#2F2C3F"/>
<path d="M167.727 182.383C165.577 179.526 164.332 176.613 163.994 173.644C163.677 170.678 164.187 167.829 165.525 165.096C166.872 162.376 168.956 159.954 171.776 157.831C174.633 155.681 177.554 154.345 180.538 153.825C183.543 153.308 186.421 153.617 189.171 154.751C191.934 155.877 194.376 157.85 196.499 160.671C198.331 163.104 199.492 165.567 199.985 168.06C200.477 170.553 200.325 172.934 199.529 175.202C198.732 177.47 197.298 179.469 195.225 181.2L189.731 173.9C190.968 172.647 191.678 171.259 191.86 169.738C192.064 168.219 191.632 166.752 190.566 165.335C189.664 164.137 188.549 163.336 187.221 162.932C185.915 162.531 184.457 162.547 182.849 162.98C181.24 163.413 179.558 164.29 177.803 165.612C176.024 166.951 174.693 168.332 173.81 169.755C172.937 171.19 172.51 172.601 172.531 173.989C172.552 175.377 173.013 176.67 173.915 177.868C174.58 178.752 175.358 179.408 176.25 179.837C177.151 180.278 178.119 180.469 179.156 180.409C180.213 180.353 181.287 180.028 182.377 179.436L187.871 186.735C185.649 188.218 183.335 189.049 180.93 189.229C178.545 189.412 176.216 188.937 173.941 187.805C171.666 186.672 169.595 184.865 167.727 182.383Z" fill="#2F2C3F"/>
<path d="M216.906 195.028L210.624 198.693L200.029 180.535L206.311 176.87L216.906 195.028ZM215.94 176.777L220.819 185.14L192.709 201.541C191.937 201.992 191.404 202.461 191.109 202.948C190.828 203.428 190.724 203.927 190.799 204.445C190.88 204.976 191.086 205.523 191.414 206.086C191.643 206.479 191.905 206.852 192.199 207.207C192.507 207.553 192.741 207.82 192.903 208.007L187.447 212.953C187.072 212.61 186.578 212.109 185.965 211.449C185.339 210.797 184.69 209.939 184.016 208.876C182.762 206.907 181.999 204.983 181.729 203.106C181.466 201.243 181.738 199.514 182.545 197.92C183.352 196.327 184.747 194.96 186.731 193.82L215.94 176.777Z" fill="#2F2C3F"/>
<path d="M224.195 237.972L220.152 230.065C220.786 229.624 221.281 229.053 221.637 228.352C222.006 227.646 222.194 226.845 222.201 225.949C222.227 225.062 222.016 224.104 221.568 223.076C220.968 221.701 220.171 220.669 219.176 219.979C218.195 219.283 217.225 219.143 216.267 219.561C215.503 219.894 214.99 220.481 214.729 221.323C214.467 222.164 214.501 223.397 214.83 225.023L216.188 231.323C216.906 234.712 216.889 237.48 216.139 239.625C215.388 241.771 213.86 243.346 211.555 244.351C209.457 245.266 207.348 245.45 205.225 244.904C203.109 244.373 201.14 243.231 199.319 241.48C197.517 239.736 196.011 237.476 194.8 234.698C192.953 230.462 192.363 226.702 193.031 223.419C193.719 220.144 195.497 217.625 198.364 215.862L202.629 224.392C201.452 225.219 200.745 226.288 200.506 227.598C200.282 228.903 200.514 230.347 201.205 231.93C201.883 233.486 202.727 234.605 203.736 235.289C204.765 235.981 205.761 236.125 206.726 235.721C207.525 235.356 208.036 234.728 208.26 233.838C208.497 232.941 208.451 231.737 208.124 230.227L206.812 224.204C206.074 220.807 206.143 218.008 207.019 215.808C207.9 213.622 209.535 212.008 211.924 210.967C213.98 210.071 215.993 209.854 217.963 210.317C219.94 210.794 221.773 211.871 223.463 213.548C225.159 215.238 226.603 217.451 227.796 220.187C229.558 224.229 230.091 227.782 229.394 230.846C228.703 233.924 226.97 236.3 224.195 237.972Z" fill="#2F2C3F"/>
</svg>
